<svg xmlns="http://www.w3.org/2000/svg" width="27.083" height="25" viewBox="0 0 27.083 25">
  <g id="Icon_ionic-ios-calendar" data-name="Icon ionic-ios-calendar" transform="translate(-3.375 -4.5)">
    <path id="Path_16" data-name="Path 16" d="M27.854,6.75h-2.6V8.3a.52.52,0,0,1-.521.517H23.688a.52.52,0,0,1-.521-.517V6.75h-12.5V8.3a.52.52,0,0,1-.521.517H9.1A.52.52,0,0,1,8.583,8.3V6.75h-2.6a2.6,2.6,0,0,0-2.6,2.585v17.58a2.6,2.6,0,0,0,2.6,2.585H27.854a2.6,2.6,0,0,0,2.6-2.585V9.335A2.6,2.6,0,0,0,27.854,6.75Zm.521,19.389a1.3,1.3,0,0,1-1.3,1.293H6.76a1.3,1.3,0,0,1-1.3-1.293V14.506a.52.52,0,0,1,.521-.517H27.854a.52.52,0,0,1,.521.517Z" fill="#132e57"/>
    <path id="Path_17" data-name="Path 17" d="M11.25,5.063a.564.564,0,0,0-.562-.562H9.563A.564.564,0,0,0,9,5.063V6.75h2.25Z" transform="translate(-0.451)" fill="#132e57"/>
    <path id="Path_18" data-name="Path 18" d="M27,5.063a.564.564,0,0,0-.562-.562H25.313a.564.564,0,0,0-.562.563V6.75H27Z" transform="translate(-1.715)" fill="#132e57"/>
  </g>
</svg>
