<svg xmlns="http://www.w3.org/2000/svg" width="46" height="26.28" viewBox="0 0 46 26.28">
  <path id="Icon_ionic-ios-trending-up" data-name="Icon ionic-ios-trending-up" d="M46.69,9h-12.4a1.52,1.52,0,1,0,0,3.039h8.592l-14.166,14.6L19.9,18a1.553,1.553,0,0,0-1.1-.441A1.571,1.571,0,0,0,17.7,18L2.681,32.693a1.485,1.485,0,0,0-.431,1.1,1.393,1.393,0,0,0,.431,1.047,1.553,1.553,0,0,0,1.1.441,1.571,1.571,0,0,0,1.1-.441L18.8,21.216l8.818,8.633a1.553,1.553,0,0,0,1.1.441,1.571,1.571,0,0,0,1.1-.441L45.15,14.256v8.387a1.55,1.55,0,0,0,3.1,0V10.519A1.551,1.551,0,0,0,46.69,9Z" transform="translate(-2.25 -9)" fill="#132e57"/>
</svg>
