<svg xmlns="http://www.w3.org/2000/svg" width="30.473" height="30.473" viewBox="0 0 30.473 30.473">
  <g id="Icon_ionic-ios-checkmark-circle-outline" data-name="Icon ionic-ios-checkmark-circle-outline" transform="translate(-3.375 -3.375)">
    <path id="Path_19" data-name="Path 19" d="M26.712,13.563l-1.337-1.273a.3.3,0,0,0-.213-.084h0a.287.287,0,0,0-.213.084l-9.271,8.641L12.3,17.81a.31.31,0,0,0-.426,0l-1.353,1.252a.266.266,0,0,0,0,.4L14.781,23.4a1.392,1.392,0,0,0,.889.4,1.455,1.455,0,0,0,.882-.387h.008l10.16-9.45A.284.284,0,0,0,26.712,13.563Z" transform="translate(0 0.612)" fill="#132e57"/>
    <path id="Path_20" data-name="Path 20" d="M18.612,5.426a13.18,13.18,0,1,1-9.325,3.86,13.1,13.1,0,0,1,9.325-3.86m0-2.051A15.237,15.237,0,1,0,33.848,18.612,15.234,15.234,0,0,0,18.612,3.375Z" fill="#132e57"/>
  </g>
</svg>
