<svg xmlns="http://www.w3.org/2000/svg" width="41.679" height="27" viewBox="0 0 41.679 27">
  <path id="Icon_awesome-toggle-off" data-name="Icon awesome-toggle-off" d="M27.786,4.5H13.893A13.7,13.7,0,0,0,0,18,13.7,13.7,0,0,0,13.893,31.5H27.786A13.7,13.7,0,0,0,41.679,18,13.7,13.7,0,0,0,27.786,4.5ZM4.631,18a9.129,9.129,0,0,1,9.262-9,9.129,9.129,0,0,1,9.262,9,9.129,9.129,0,0,1-9.262,9A9.129,9.129,0,0,1,4.631,18Zm23.155,9H24.247a13.211,13.211,0,0,0,0-18h3.539a9.129,9.129,0,0,1,9.262,9A9.129,9.129,0,0,1,27.786,27Z" transform="translate(0 -4.5)" fill="#132e57"/>
</svg>
