<svg xmlns="http://www.w3.org/2000/svg" width="13.305" height="23.513" viewBox="0 0 13.305 23.513">
  <path id="Icon_metro-money" data-name="Icon metro-money" d="M17.853,16.746c-2.965-.771-3.919-1.561-3.919-2.8,0-1.424,1.313-2.423,3.527-2.423,2.325,0,3.187,1.11,3.266,2.743h2.887A5.2,5.2,0,0,0,19.42,9.288V6.427H15.5V9.248c-2.534.555-4.572,2.188-4.572,4.716,0,3.018,2.5,4.52,6.14,5.395,3.272.784,3.919,1.927,3.919,3.155,0,.895-.634,2.332-3.527,2.332-2.691,0-3.756-1.208-3.893-2.743h-2.88c.163,2.861,2.3,4.461,4.814,5V29.94H19.42V27.132c2.541-.49,4.572-1.959,4.572-4.644,0-3.7-3.174-4.964-6.14-5.741Z" transform="translate(-10.688 -6.427)" fill="#132e57"/>
</svg>
